<?xml version="1.0" encoding="utf-8"?>
<!-- Generator: Adobe Illustrator 25.1.0, SVG Export Plug-In . SVG Version: 6.00 Build 0)  -->
<svg version="1.1" id="Layer_1" xmlns="http://www.w3.org/2000/svg" xmlns:xlink="http://www.w3.org/1999/xlink" x="0px" y="0px"
	 viewBox="0 0 32.1 32" style="enable-background:new 0 0 32.1 32;" xml:space="preserve">
<g>
	<path style="fill-rule:evenodd;clip-rule:evenodd;fill:#FB3449;" d="M8.1,8.9l5-3.6c0.2-0.2,0.4-0.2,0.5-0.2s0.4,0,0.4,0.1l9.8,5.9
		c0.3,0.2,0.4,0.4,0.4,0.8s-0.2,0.6-0.4,0.8l-3,1.8l-5.4-3.2c-0.6-0.4-1.3-0.5-1.9-0.5c-0.7,0-1.5,0.3-2.1,0.7l-3.8,2.7V9.7
		C7.7,9.3,7.9,9,8.1,8.9L8.1,8.9z M24.9,16.8l-2.7,1.6l1.8,1.1c0.3,0.2,0.4,0.4,0.4,0.8c0,0.4-0.2,0.6-0.4,0.8l-9.8,5.8
		c-0.2,0.1-0.3,0.1-0.4,0.1c-0.1,0-0.4,0-0.5-0.2l-5-3.6c-0.3-0.2-0.4-0.4-0.4-0.7v-4.6c0-0.3,0.2-0.5,0.4-0.7l5-3.6
		c0.2-0.2,0.4-0.2,0.5-0.2c0.2,0,0.4,0.1,0.4,0.1l4.1,2.4l-4.1,2.4c-0.2,0.1-0.3,0.1-0.4,0.1c-0.1,0-0.4,0-0.5-0.2l-2.3-1.7L9,17.9
		v0.7l2.6,1.8c0.6,0.4,1.4,0.7,2.1,0.7c0.6,0,1.3-0.2,1.9-0.5l9.8-5.8c1.1-0.6,1.8-1.9,1.8-3.1c0-1.3-0.7-2.5-1.8-3.1l-9.8-5.8
		c-0.6-0.4-1.3-0.5-1.9-0.5c-0.8,0.1-1.5,0.4-2.2,0.8l-5,3.6C5.5,7.3,5,8.5,5,9.6v4.6c0,0.7,0.3,1.3,0.6,2C5.2,16.7,5,17.3,5,18v4.6
		c0,1.2,0.5,2.3,1.5,3l5,3.6c0.7,0.4,1.4,0.6,2.1,0.6c0.6,0,1.3-0.2,1.9-0.5l9.8-5.8c1.1-0.6,1.8-1.9,1.8-3.1c0-1.3-0.7-2.5-1.8-3.1
		L24.9,16.8L24.9,16.8z"/>
</g>
</svg>
