<svg data-v-40bf4264="" data-v-a11d69c8="" viewBox="0 0 31 25" fill="none" xmlns="http://www.w3.org/2000/svg" class=""><path data-v-40bf4264="" d="M21.0061 24.3301C20.8586 24.3301 20.7056 24.3225 20.5469 24.3074C19.6002 24.2189 18.4625 23.8709 17.1653 23.2738C14.5462 22.0677 11.5308 19.9643 8.67506 17.3509C5.8193 14.7376 3.45644 11.9212 2.02209 9.41803C1.31184 8.17826 0.863963 7.07411 0.691177 6.13928C0.598872 5.64046 0.586595 5.18874 0.654346 4.79665C0.728917 4.36564 0.899885 4.00017 1.1627 3.71321C1.42552 3.42625 1.77291 3.22235 2.1951 3.10948C2.5791 3.00707 3.02971 2.97886 3.5342 3.02619C4.48089 3.11494 5.61855 3.46266 6.91582 4.06002C9.5349 5.26611 12.5503 7.36927 15.406 9.98262C18.2618 12.596 20.6246 15.4137 22.059 17.9171C22.7692 19.1569 23.2171 20.261 23.3899 21.1959C23.4822 21.6945 23.4945 22.1462 23.4267 22.5385C23.3524 22.9695 23.1812 23.3339 22.9184 23.6217C22.6556 23.9096 22.3082 24.1126 21.886 24.2255C21.5985 24.2984 21.3027 24.3336 21.0061 24.3301ZM3.06813 3.81288C2.47088 3.81288 2.03209 3.96239 1.76109 4.25936C1.4337 4.61755 1.34185 5.20034 1.48827 5.99091C1.64241 6.8247 2.07029 7.87014 2.72574 9.01388C3.40165 10.1936 4.29628 11.4534 5.38575 12.7587C6.51704 14.1147 7.80817 15.4587 9.22298 16.7536C10.6378 18.0484 12.0908 19.2152 13.5426 20.2217C14.9388 21.1904 16.2724 21.9698 17.5065 22.5381C18.7035 23.0892 19.7818 23.4222 20.6253 23.5013C20.7617 23.5141 20.8922 23.5205 21.0168 23.5205C21.6141 23.5205 22.0528 23.3709 22.3238 23.0742C22.6512 22.7158 22.7431 22.1332 22.5967 21.3424C22.4425 20.5086 22.0146 19.4634 21.3592 18.3195C20.6835 17.14 19.7887 15.88 18.6992 14.5749C17.5679 13.2186 16.2768 11.8746 14.862 10.58C13.4472 9.28536 11.9942 8.11841 10.5423 7.11166C9.14636 6.14292 7.81249 5.36351 6.57843 4.79528C5.38143 4.24412 4.3031 3.91119 3.45963 3.83223C3.32185 3.81933 3.19105 3.81288 3.06722 3.81288H3.06813Z" fill="#FFF" class="ring-1"></path><path data-v-40bf4264="" d="M24.3267 23.1813C24.1794 23.1813 24.0263 23.1737 23.8675 23.1586C22.9208 23.0698 21.7831 22.7221 20.4861 22.1247C17.8668 20.9186 14.8517 18.8153 11.9957 16.2021C9.1397 13.589 6.7773 10.7708 5.34294 8.26763C4.63247 7.02786 4.18345 5.92372 4.0118 4.98888C3.92086 4.49006 3.90722 4.03857 3.97497 3.64625C4.04954 3.21524 4.22051 2.84977 4.48333 2.56304C4.74614 2.27631 5.09354 2.07195 5.51596 1.95931C5.89995 1.85668 6.35033 1.82846 6.85483 1.87579C7.80152 1.96454 8.93918 2.31226 10.2364 2.90962C12.8558 4.11571 15.8709 6.21887 18.7266 8.83222C21.5824 11.4456 23.9453 14.2635 25.3796 16.7667C26.0899 18.0065 26.5377 19.1106 26.7108 20.0455C26.8028 20.5443 26.8153 20.9958 26.7476 21.3881C26.673 21.8191 26.502 22.1846 26.239 22.4713C25.976 22.7581 25.6288 22.9622 25.2066 23.0751C24.9192 23.1485 24.6234 23.1843 24.3267 23.1813ZM6.38876 2.66408C5.7915 2.66408 5.35295 2.81359 5.08172 3.11056C4.75433 3.46897 4.66248 4.05154 4.80889 4.8421C4.96281 5.6759 5.39068 6.72133 6.04614 7.8653C6.72205 9.04477 7.6169 10.3046 8.70614 11.6099C9.83767 12.9659 11.1286 14.3102 12.5434 15.6048C13.9582 16.8994 15.4112 18.0664 16.863 19.0729C18.2592 20.0418 19.5928 20.821 20.8269 21.3893C22.0239 21.9404 23.1022 22.2736 23.9457 22.3525C24.7455 22.4274 25.3171 22.2843 25.6445 21.9254C25.9719 21.5665 26.0637 20.9844 25.9173 20.1936C25.7632 19.3601 25.3353 18.3146 24.6798 17.1707C24.0041 15.9912 23.1093 14.7314 22.0198 13.4261C20.8883 12.07 19.5972 10.7258 18.1824 9.43117C16.7676 8.13656 15.3146 6.9696 13.8641 5.96308C12.4679 4.99411 11.1343 4.2147 9.89996 3.64648C8.70319 3.09554 7.62464 2.76238 6.78116 2.68342C6.64293 2.67052 6.51183 2.66408 6.38785 2.66408H6.38876Z" fill="#FFF" class="ring-2"></path><path data-v-40bf4264="" d="M28.0243 22.3276C27.8767 22.3276 27.7236 22.3201 27.5651 22.3049C26.6184 22.2161 25.4807 21.8684 24.1835 21.2711C21.5644 20.065 18.549 17.9618 15.6933 15.3484C12.8375 12.7351 10.4747 9.91716 9.04031 7.41394C8.33007 6.17417 7.88218 5.07003 7.70917 4.13519C7.61823 3.6366 7.60482 3.18488 7.67257 2.79256C7.74691 2.36155 7.91811 1.99608 8.18092 1.70935C8.44374 1.42262 8.79113 1.21849 9.21332 1.10562C9.59732 1.00299 10.0479 0.974996 10.5524 1.02233C11.4991 1.11085 12.6368 1.4588 13.934 2.05593C16.5531 3.26202 19.5685 5.36541 22.4242 7.97876C25.28 10.5921 27.6428 13.4098 29.077 15.913C29.7874 17.1528 30.2365 18.257 30.4081 19.1918C30.5004 19.6906 30.5127 20.1423 30.4449 20.5344C30.3704 20.9654 30.1994 21.3309 29.9366 21.6176C29.6738 21.9055 29.3264 22.1087 28.9042 22.2214C28.6168 22.2949 28.321 22.3307 28.0243 22.3276ZM10.0864 1.81039C9.48887 1.81039 9.05031 1.9599 8.77908 2.25664C8.45193 2.61506 8.36008 3.19762 8.50626 3.98841C8.66041 4.82221 9.08828 5.86741 9.74373 7.01138C10.4194 8.19085 11.3143 9.45088 12.4037 10.756C13.535 12.1123 14.8262 13.4562 16.241 14.7509C17.6558 16.0455 19.1088 17.2124 20.5593 18.2192C21.9554 19.1879 23.2893 19.9673 24.5234 20.5356C25.7201 21.0867 26.7987 21.4197 27.6422 21.4986C27.7786 21.5117 27.9091 21.5181 28.0337 21.518C28.6309 21.518 29.0697 21.3684 29.3407 21.0715C29.6681 20.7133 29.7599 20.1305 29.6135 19.3399C29.4596 18.5061 29.0317 17.4607 28.3763 16.317C27.7004 15.1373 26.8057 13.8775 25.7163 12.5722C24.585 11.2161 23.2939 9.8721 21.879 8.57726C20.4642 7.28241 19.0112 6.11569 17.5594 5.10917C16.1632 4.14043 14.8296 3.36101 13.5955 2.79279C12.3985 2.24162 11.3202 1.90847 10.4767 1.8295C10.3395 1.81752 10.2091 1.81153 10.0854 1.81153L10.0864 1.81039Z" fill="#FFF" class="ring-3"></path><!----></svg>