<?xml version="1.0" encoding="utf-8"?>
<!-- Generator: Adobe Illustrator 25.1.0, SVG Export Plug-In . SVG Version: 6.00 Build 0)  -->
<svg version="1.1" id="Layer_1" xmlns="http://www.w3.org/2000/svg" xmlns:xlink="http://www.w3.org/1999/xlink" x="0px" y="0px"
	 viewBox="0 0 718 307.6" style="enable-background:new 0 0 718 307.6;" xml:space="preserve">
<path style="fill:#D7EEF4;" d="M66.4,81.8c0,0,6.8-10.1,13.8-14.7c9-5.9,23.8-8.2,23.8-8.2s3.1-28.4,31.8-37s50.7-1.1,60.8,7.1
	c10.1,8.2,13.6,15.9,13.6,15.9s20.5-2.9,35.8,4.3s18.3,16.3,18.3,16.3S324,57.6,324,96.3c0,26.9-40.2,34.3-49.2,34.7
	c-9,0.5-23.5-2.9-23.5-2.9s-10.5,18.3-36.6,23.1c-26.1,4.9-45.6-4.6-45.6-4.6s-8.7,14.5-58.9,10.3c-29.2-2.5-44.8-23.8-44.8-23.8
	s-50.8,3.8-49.5-28.8C17.3,71.8,66.4,81.8,66.4,81.8z"/>
<path style="fill:#D7EEF4;" d="M531.6,236.9c0,0,4-6,8.1-8.7c5.3-3.5,14-4.8,14-4.8s1.8-16.7,18.7-21.8c16.9-5.1,29.8-0.7,35.8,4.1
	c6,4.8,8,9.3,8,9.3s12.1-1.7,21,2.5c9,4.2,10.8,9.6,10.8,9.6s35.1-4.6,35.1,18.1c0,15.8-23.6,20.2-28.9,20.4
	c-5.3,0.3-13.8-1.7-13.8-1.7s-6.2,10.7-21.5,13.6c-15.3,2.9-26.8-2.7-26.8-2.7s-5.1,8.5-34.6,6.1c-17.2-1.5-26.3-14-26.3-14
	s-29.8,2.2-29.1-16.9C502.8,231,531.6,236.9,531.6,236.9z"/>
</svg>
