<?xml version="1.0" encoding="utf-8"?>
<!-- Generator: Adobe Illustrator 25.1.0, SVG Export Plug-In . SVG Version: 6.00 Build 0)  -->
<svg version="1.1" id="Layer_1" xmlns="http://www.w3.org/2000/svg" xmlns:xlink="http://www.w3.org/1999/xlink" x="0px" y="0px"
	 viewBox="0 0 648.6 549.2" style="enable-background:new 0 0 648.6 549.2;" xml:space="preserve">
<g id="robot">
	<g id="torso">
		<g id="left_arm">
			<g id="rotated_pencil">
				<g id="Shape_18">
					<polygon style="fill:#A1D4EA;" points="29.1,422.1 25.9,427.5 24.1,481 69.5,451.9 71.8,448 					"/>
				</g>
				<g id="Shape_19">
					<path style="fill:#FFFFFF;" d="M35,461.4c-3.1-1.9-6.5-3.3-10.1-4l-0.8,23.5l18.7-12C40.6,466,38,463.5,35,461.4z"/>
				</g>
				<g id="eraser">
					<path style="fill:#49BCE8;" d="M293.4,19.6c-11.9-7-25.7-5.6-27.9-1.7l-0.1,0.1l0,0l-21.6,36.9L287,80l21.6-36.9l0,0l0.1-0.1
						C310.8,39.2,305.3,26.5,293.4,19.6z"/>
				</g>
				<g id="Shape_20">
					<polygon style="fill:#FFFFFF;" points="283.5,53.6 269.1,45 248,47.8 238.7,64.2 260,60.8 274.4,69.2 285.2,83.4 294.6,67 
											"/>
				</g>
				<g id="wood">
					<g id="Rectangle_4_copy_3">
						<polygon style="fill:#0494CA;" points="274,68.8 56.2,441.3 69.5,451.9 285.3,82.9 						"/>
					</g>
					<g id="Rectangle_4">
						
							<rect x="-57.5" y="242.7" transform="matrix(0.5048 -0.8632 0.8632 0.5048 -138.3648 260.9525)" style="fill:#49BCE8;" width="431.5" height="16.8"/>
					</g>
					<g id="Rectangle_4_copy_4">
						<polygon style="fill:#A1D4EA;" points="238.7,63.7 25.9,427.5 42.1,433.1 259.8,60.6 						"/>
					</g>
				</g>
			</g>
		</g>
	</g>
</g>
<g>
	<path style="fill:#FFFFFF;" d="M24.1,480.9c10.2,0.7,20.3,1.3,30.5,1.9c10.2,0.6,20.3,1.1,30.5,1.6c20.3,1,40.6,1.9,60.9,2.4
		c20.3,0.7,40.6,1.1,60.9,1.2c20.3,0.2,40.6,0.1,60.8-0.4c10.1-0.2,20.3-0.6,30.4-1.1c10.1-0.4,20.2-1,30.3-1.7
		c20.2-1.4,40.3-3.5,60.1-6.6c9.9-1.5,19.8-3.3,29.5-5.6c9.7-2.2,19.3-4.9,28.5-8.2c4.6-1.7,9.1-3.5,13.5-5.6
		c4.3-2.1,8.5-4.4,12.4-7c4-2.7,8-5.6,11.7-8.7c1.8-1.5,3.6-3.1,5.2-4.7c1.6-1.6,3-3.2,4.1-4.8c0.5-0.8,0.9-1.5,1.2-2.1
		c0.2-0.6,0.4-1.1,0.4-1.3c0-0.2,0-0.2-0.1-0.4c-0.1-0.2-0.3-0.5-0.8-1c-0.9-0.9-2.6-1.9-4.5-2.8c-1.9-0.9-4.1-1.6-6.3-2.3
		c-4.5-1.4-9.3-2.5-14.1-3.4c-4.9-1-9.8-1.8-14.8-2.6c-19.9-3.1-40.2-5.6-60.4-9c-10.1-1.7-20.2-3.6-30.3-5.8
		c-2.5-0.5-5-1.1-7.5-1.7c-2.6-0.6-5.2-1.3-7.8-2.1c-2.6-0.8-5.2-1.7-7.8-2.8c-2.6-1.1-5.3-2.4-8-4.4c-1.3-1-2.7-2.2-3.9-3.8
		c-0.6-0.8-1.2-1.7-1.7-2.8c-0.5-1.1-0.9-2.2-1.1-3.5c-0.4-2.5,0.1-5,0.9-7c0.8-2,1.9-3.5,3-4.8c2.2-2.6,4.6-4.4,7-6.1
		c2.4-1.6,4.8-3,7.2-4.2c4.9-2.5,9.8-4.4,14.8-6.2c5-1.7,10-3.2,15-4.6c10.1-2.7,20.2-4.7,30.5-6.2c10.2-1.5,20.6-2.5,30.9-2.8
		c10.4-0.3,20.8,0.1,31.2,1.5c2.6,0.4,5.2,0.8,7.8,1.3l7.4,1.4c2.5,0.4,4.9,0.8,7.4,1.1l3.7,0.4l1.9,0.2l1.9,0.2
		c10,0.9,20,1.1,30,0.6c10-0.5,20.1-1.6,30.1-3.2c10-1.6,19.9-3.7,29.7-6.3c9.8-2.6,19.5-5.6,29-9.3c-18.4,8.8-37.9,15.1-57.9,19.6
		c-20,4.4-40.6,6.6-61.3,5.7l-1.9-0.1l-1.9-0.1l-3.9-0.3c-2.6-0.2-5.2-0.6-7.7-0.9l-7.6-1.2c-2.4-0.4-4.9-0.7-7.3-0.9
		c-9.8-1-19.8-0.9-29.8-0.3c-19.9,1.3-39.8,4.7-58.9,10.3c-9.5,2.8-18.9,6.2-27.3,10.6c-2.1,1.1-4.1,2.3-5.9,3.6
		c-1.8,1.3-3.4,2.6-4.5,3.9c-0.5,0.6-0.9,1.2-1,1.6c-0.1,0.4-0.1,0.5-0.1,0.5c0,0,0.1,0.2,0.4,0.6c0.3,0.4,0.9,0.9,1.6,1.4
		c1.4,1,3.4,2,5.4,2.8c2.1,0.8,4.3,1.6,6.6,2.2c2.3,0.7,4.6,1.2,7,1.7c2.5,0.5,4.9,1,7.4,1.5c9.8,2,19.8,3.7,29.8,5.2
		c10,1.5,20,3,30.1,4.3c10.1,1.4,20.2,2.7,30.3,4.2c5.1,0.8,10.2,1.6,15.3,2.6c5.1,1,10.3,2.1,15.5,3.7c2.6,0.8,5.3,1.7,8,3
		c2.7,1.3,5.5,2.7,8.3,5.3c1.4,1.3,2.8,3,3.8,5.1c1,2.1,1.5,4.7,1.4,7c-0.1,2.3-0.7,4.3-1.4,6.1c-0.7,1.7-1.6,3.2-2.5,4.5
		c-1.8,2.7-3.8,4.8-5.8,6.9c-2,2-4.1,3.8-6.2,5.5c-4.2,3.4-8.4,6.5-12.8,9.5c-4.6,3.1-9.4,5.7-14.2,8c-4.8,2.3-9.8,4.3-14.7,6
		c-9.9,3.5-20,6.2-30.2,8.5c-10.1,2.2-20.3,4-30.5,5.5c-20.4,2.9-40.9,4.6-61.3,5.7c-10.2,0.6-20.4,0.9-30.7,1.2
		c-10.2,0.3-20.4,0.3-30.6,0.3c-20.4-0.1-40.8-0.5-61.2-1.3c-20.4-0.9-40.7-2.1-61.1-3.5C105,490.7,64.4,486.7,24.1,480.9z"/>
</g>
</svg>
